<svg xmlns="http://www.w3.org/2000/svg" xmlns:xlink="http://www.w3.org/1999/xlink" viewBox="0 0 711.39 538.85"><defs><style>.cls-1,.cls-4{fill:none;}.cls-2{fill:#fff;}.cls-3{fill:#ebead6;stroke:#000;stroke-width:0.5px;}.cls-3,.cls-37,.cls-38,.cls-4,.cls-40{stroke-miterlimit:10;}.cls-4{stroke:#0054f1;stroke-width:7px;}.cls-5{isolation:isolate;}.cls-6{clip-path:url(#clip-path);}.cls-7{fill:#002c7d;}.cls-8{clip-path:url(#clip-path-2);}.cls-9{clip-path:url(#clip-path-3);}.cls-10{clip-path:url(#clip-path-4);}.cls-11{fill:#002f86;}.cls-12{clip-path:url(#clip-path-5);}.cls-13{fill:#0042bc;}.cls-14{fill:#0040b7;}.cls-15{fill:#003eb2;}.cls-16{fill:#003cae;}.cls-17{fill:#003ba9;}.cls-18{fill:#0039a4;}.cls-19{fill:#00379f;}.cls-20{fill:#00369a;}.cls-21{fill:#003495;}.cls-22{fill:#003291;}.cls-23{fill:#00318c;}.cls-24{fill:#002f87;}.cls-25{fill:#002d82;}.cls-26{clip-path:url(#clip-path-6);}.cls-27{clip-path:url(#clip-path-7);}.cls-28{fill:#0043c1;}.cls-29{fill:#0045c6;}.cls-30{fill:#0047ca;}.cls-31{fill:#0048cf;}.cls-32{clip-path:url(#clip-path-8);}.cls-33{fill:#002d80;}.cls-34{fill:#0044c2;}.cls-35{fill:#0049d1;}.cls-36{fill:#0047cb;}.cls-37{fill:#ff5947;}.cls-37,.cls-38,.cls-40{stroke:#fff;}.cls-37,.cls-38{stroke-width:2px;}.cls-38{fill:#0054f1;}.cls-39{font-size:39px;font-family:ThinPixel-7, Thin Pixe-l7;}.cls-40{stroke-width:3px;}</style><clipPath id="clip-path"><path class="cls-1" d="M701.33,6.53a0,0,0,0,0,0,0v1a1,1,0,0,1-1-1Z"/></clipPath><clipPath id="clip-path-2"><path class="cls-1" d="M8.31,6.52s0,0,0,0h1a1,1,0,0,1-1,1Z"/></clipPath><clipPath id="clip-path-3"><path class="cls-1" d="M701.32,53.57h-1a1,1,0,0,1,1-1Z"/></clipPath><clipPath id="clip-path-4"><path class="cls-1" d="M8.27,53.56s0,0,0,0v-1a1,1,0,0,1,1,1Z"/></clipPath><clipPath id="clip-path-5"><path class="cls-1" d="M701.32,53.57h3a3,3,0,0,1-3,3Z"/></clipPath><clipPath id="clip-path-6"><path class="cls-1" d="M8.27,53.56s0,0,0,0v3a3,3,0,0,1-3-3Z"/></clipPath><clipPath id="clip-path-7"><path class="cls-1" d="M701.33,6.53a0,0,0,0,0,0,0v-3a3,3,0,0,1,3,3Z"/></clipPath><clipPath id="clip-path-8"><path class="cls-1" d="M8.31,6.52s0,0,0,0h-3a3,3,0,0,1,3-3Z"/></clipPath></defs><title>Asset 2</title><g id="Layer_2" data-name="Layer 2"><g id="Layer_1-2" data-name="Layer 1"><rect class="cls-2" x="3.5" y="87.13" width="704.39" height="448.22"/><rect class="cls-3" x="5.28" y="53.56" width="702.62" height="33.57"/><rect class="cls-4" x="3.5" y="3.5" width="704.39" height="531.85" rx="11.01"/><g class="cls-5"><g class="cls-5"><g class="cls-6"><g class="cls-5"><path class="cls-7" d="M701.32,6.52v1a1,1,0,0,1-1-1h1"/></g></g></g><g class="cls-5"><g class="cls-8"><g class="cls-5"><path class="cls-7" d="M8.3,6.53h1a1,1,0,0,1-1,1v-1h0"/></g></g></g><g class="cls-5"><g class="cls-9"><g class="cls-5"><path class="cls-7" d="M701.36,53.56h-1a1,1,0,0,1,1-1v1l0,0"/></g></g></g><g class="cls-5"><g class="cls-10"><g class="cls-5"><path class="cls-7" d="M8.31,53.6v-1a1,1,0,0,1,1,1h-1l0,0"/></g></g></g><rect class="cls-11" x="8.31" y="3.5" width="693.01"/><g class="cls-5"><g class="cls-12"><g class="cls-5"><path class="cls-13" d="M701.34,53.56h3v.19l-3-.19h0"/><path class="cls-14" d="M701.34,53.56l3,.19,0,.25-3-.44h0"/><path class="cls-15" d="M701.34,53.56l3,.44c0,.08,0,.16,0,.23l-2.94-.67h0"/><path class="cls-16" d="M701.34,53.56l2.94.67a1.55,1.55,0,0,1-.07.23l-2.87-.9h0"/><path class="cls-17" d="M701.34,53.56l2.87.9a2.09,2.09,0,0,1-.08.23l-2.79-1.13h0"/><path class="cls-18" d="M701.34,53.56l2.79,1.13a1.47,1.47,0,0,1-.1.22l-2.69-1.35h0"/><path class="cls-19" d="M701.34,53.56,704,54.91a1.71,1.71,0,0,1-.13.23l-2.56-1.58h0"/><path class="cls-20" d="M701.34,53.56l2.56,1.58c0,.08-.1.15-.15.23l-2.42-1.81h0"/><path class="cls-21" d="M701.33,53.56l2.42,1.81c-.06.07-.12.15-.19.22l-2.23-2h0"/><path class="cls-22" d="M701.33,53.57l2.23,2a2.5,2.5,0,0,1-.23.23l-2-2.25h0"/><path class="cls-23" d="M701.33,53.57l2,2.25a2.26,2.26,0,0,1-.29.23l-1.71-2.48h0"/><path class="cls-24" d="M701.33,53.57,703,56.05a3.28,3.28,0,0,1-.37.22l-1.35-2.7h0"/><path class="cls-25" d="M701.32,53.57l1.35,2.7a4.87,4.87,0,0,1-.53.21l-.82-2.91h0"/><path class="cls-7" d="M701.32,53.57l.82,2.91a3.18,3.18,0,0,1-.82.11v-3h0"/></g></g></g><g class="cls-5"><g class="cls-26"><g class="cls-5"><path class="cls-7" d="M8.31,53.57v3a3,3,0,0,1-3-3h3"/></g></g></g><g class="cls-5"><g class="cls-27"><g class="cls-5"><path class="cls-15" d="M701.32,6.52v-3h.07l-.07,3h0"/><path class="cls-14" d="M701.32,6.52l.07-3h.25l-.32,3h0"/><path class="cls-13" d="M701.32,6.52l.32-3,.27,0-.59,3h0"/><path class="cls-28" d="M701.32,6.52l.59-3,.28.08-.87,2.89h0"/><path class="cls-29" d="M701.32,6.52l.87-2.89.31.11-1.18,2.78h0"/><path class="cls-30" d="M701.32,6.52l1.18-2.78a3.55,3.55,0,0,1,.39.2l-1.57,2.58h0"/><path class="cls-31" d="M701.32,6.52l1.57-2.58a3,3,0,0,1,1.24,1.47l-2.8,1.12h0"/><path class="cls-30" d="M701.33,6.53l2.8-1.12a2.83,2.83,0,0,1,.14.41l-2.94.71h0"/><path class="cls-29" d="M701.33,6.53l2.94-.71.06.32-3,.39h0"/><path class="cls-28" d="M701.33,6.53l3-.39a2.83,2.83,0,0,1,0,.29l-3,.1h0"/><path class="cls-13" d="M701.33,6.53l3-.1v.1h-3"/></g></g></g><g class="cls-5"><g class="cls-32"><g class="cls-5"><path class="cls-7" d="M8.3,6.53h-3a3,3,0,0,1,.28-1.28L8.3,6.53h0"/><path class="cls-25" d="M8.3,6.53,5.56,5.25a3.3,3.3,0,0,1,.31-.51L8.3,6.53h0"/><path class="cls-24" d="M8.3,6.53,5.87,4.74a2.22,2.22,0,0,1,.28-.33L8.3,6.52h0"/><path class="cls-23" d="M8.3,6.52,6.15,4.41a1.55,1.55,0,0,1,.27-.24L8.3,6.52h0"/><path class="cls-22" d="M8.3,6.52,6.42,4.17A2.48,2.48,0,0,1,6.68,4L8.31,6.52h0"/><path class="cls-21" d="M8.31,6.52,6.68,4l.25-.15L8.31,6.52h0"/><path class="cls-20" d="M8.31,6.52,6.93,3.83l.24-.11,1.14,2.8h0"/><path class="cls-19" d="M8.31,6.52,7.17,3.72l.24-.09.9,2.89h0"/><path class="cls-18" d="M8.31,6.52l-.9-2.89.24-.06.66,2.95h0"/><path class="cls-17" d="M8.31,6.52,7.65,3.57l.23,0,.43,3h0"/><path class="cls-16" d="M8.31,6.52l-.43-3,.25,0,.18,3h0"/><path class="cls-15" d="M8.31,6.52l-.18-3h.18v3h0"/></g></g></g><rect class="cls-33" x="8.31" y="52.59" width="693.01" height="4"/><rect class="cls-7" x="5.28" y="6.53" width="4" height="47.03"/><rect class="cls-34" x="8.31" y="3.5" width="693.01" height="4"/><path class="cls-35" d="M701.32,7.5a1,1,0,0,1-1-1v47a1,1,0,0,1,1-1H8.31a1,1,0,0,1,1,1v-47a1,1,0,0,1-1,1Z"/><rect class="cls-36" x="700.35" y="6.53" width="4" height="47.03"/></g><rect class="cls-37" x="657.24" y="10.59" width="35.91" height="35.91" rx="3.92"/><rect class="cls-38" x="614.65" y="10.59" width="35.91" height="35.91" rx="3.92"/><rect class="cls-38" x="571.45" y="10.59" width="35.91" height="35.91" rx="3.92"/><text class="cls-39" transform="translate(14.97 79.62)">File</text><text class="cls-39" transform="translate(71.55 79.62)">Edit</text><text class="cls-39" transform="translate(131.18 79.62)">Format</text><text class="cls-39" transform="translate(214.86 79.63)">View</text><text class="cls-39" transform="translate(280.09 79.62)">Help</text><line class="cls-40" x1="663.7" y1="16.82" x2="686.86" y2="39.99"/><line class="cls-40" x1="686.86" y1="16.82" x2="663.7" y2="39.99"/><line class="cls-40" x1="643.44" y1="18.46" x2="621.16" y2="18.46"/><line class="cls-40" x1="643.44" y1="20.54" x2="621.16" y2="20.54"/><line class="cls-40" x1="643.44" y1="40.16" x2="621.16" y2="40.16"/><line class="cls-40" x1="584.12" y1="40.98" x2="575.49" y2="40.98"/><line class="cls-40" x1="622.73" y1="41.35" x2="622.73" y2="19.08"/><line class="cls-40" x1="641.98" y1="41.35" x2="641.98" y2="19.08"/></g></g></svg>