<svg id="Background" xmlns="http://www.w3.org/2000/svg" viewBox="0 0 1366 768"><defs><style>.cls-1{fill:#377ef0;}.cls-2{fill:silver;}.cls-3{fill:#fff;}.cls-4{fill:#52b529;}</style></defs><title>Artboard 1</title><rect class="cls-1" width="1366.78" height="768"/><ellipse class="cls-2" cx="653.55" cy="409.77" rx="258.92" ry="87.91"/><ellipse class="cls-2" cx="777.9" cy="357.86" rx="188.14" ry="87.91"/><ellipse class="cls-2" cx="880.04" cy="341.35" rx="188.14" ry="104.42"/><ellipse class="cls-2" cx="873.35" cy="419.81" rx="188.14" ry="87.91"/><g id="Cloud"><ellipse class="cls-3" cx="640.45" cy="403.5" rx="258.92" ry="87.91"/><ellipse class="cls-3" cx="764.81" cy="351.6" rx="188.14" ry="87.91"/><ellipse class="cls-3" cx="866.94" cy="335.08" rx="188.14" ry="104.42"/><ellipse class="cls-3" cx="860.25" cy="413.55" rx="188.14" ry="87.91"/></g><g id="Cloud_Shadow" data-name="Cloud Shadow"><ellipse class="cls-2" cx="1432.46" cy="490.02" rx="222.32" ry="87.91"/><ellipse class="cls-2" cx="1325.68" cy="438.11" rx="161.55" ry="87.91"/><ellipse class="cls-2" cx="1237.98" cy="421.6" rx="161.55" ry="104.42"/><ellipse class="cls-2" cx="1243.73" cy="500.06" rx="161.55" ry="87.91"/></g><ellipse class="cls-3" cx="1442.5" cy="494.88" rx="222.32" ry="87.91"/><ellipse class="cls-3" cx="1335.72" cy="442.98" rx="161.55" ry="87.91"/><ellipse class="cls-3" cx="1248.02" cy="426.47" rx="161.55" ry="104.42"/><ellipse class="cls-3" cx="1253.77" cy="504.93" rx="161.55" ry="87.91"/><ellipse class="cls-2" cx="1125.52" cy="184.07" rx="110.49" ry="37.37"/><ellipse class="cls-2" cx="1225.82" cy="146.42" rx="110.49" ry="49.44"/><ellipse class="cls-2" cx="1265.16" cy="202.17" rx="110.49" ry="46.8"/><ellipse class="cls-3" cx="1115.88" cy="172.97" rx="110.49" ry="37.37"/><ellipse class="cls-3" cx="1216.18" cy="135.33" rx="110.49" ry="49.44"/><ellipse class="cls-3" cx="1255.51" cy="191.07" rx="110.49" ry="46.8"/><path id="Hill" class="cls-4" d="M1366.78,523c-13.79-.15-28.66,2.75-44.3,4.83-93.48,12.41-134.44-15.08-305.54-59-140.18-36-251.55-53.23-322.69-64.23-172-26.6-282.64-43.7-427.41-31.25A1209,1209,0,0,0,0,427.15l-.8,352,2,.39V767.69H1366.78Z"/></svg>