<svg id="Layer_1" data-name="Layer 1" xmlns="http://www.w3.org/2000/svg" xmlns:xlink="http://www.w3.org/1999/xlink" viewBox="0 0 270 63"><defs><style>.cls-1{fill:none;}.cls-2{isolation:isolate;}.cls-3{fill:#355d33;}.cls-4{fill:#335931;}.cls-5{clip-path:url(#clip-path);}.cls-6{fill:#325730;}.cls-7{clip-path:url(#clip-path-2);}.cls-8{fill:#4b8248;}.cls-9{fill:#497f46;}.cls-10{fill:#477c44;}.cls-11{fill:#457842;}.cls-12{fill:#437540;}.cls-13{fill:#41723f;}.cls-14{fill:#3f6e3d;}.cls-15{fill:#3d6b3b;}.cls-16{fill:#3c6839;}.cls-17{fill:#3a6437;}.cls-18{fill:#386135;}.cls-19{fill:#365e34;}.cls-20{fill:#345a32;}.cls-21{fill:#518d4e;}.cls-22{fill:#4e874a;}.cls-23{clip-path:url(#clip-path-3);}.cls-24{fill:#4d864a;}.cls-25{fill:#4f894b;}.cls-26{fill:#518c4d;}.cls-27{fill:#53904f;}.cls-28{fill:#549351;}.cls-29{fill:#539150;}.cls-30{clip-path:url(#clip-path-4);}</style><clipPath id="clip-path"><path class="cls-1" d="M18.48,54.38v4a12,12,0,0,1-12-12h4A8,8,0,0,0,18.48,54.38Z"/></clipPath><clipPath id="clip-path-2"><path class="cls-1" d="M258.34,46.39h4a12,12,0,0,1-12,12v-4A8,8,0,0,0,258.34,46.39Z"/></clipPath><clipPath id="clip-path-3"><path class="cls-1" d="M250.33,7.16v-4a12,12,0,0,1,12,12h-4A8,8,0,0,0,250.33,7.16Z"/></clipPath><clipPath id="clip-path-4"><path class="cls-1" d="M10.48,15.16h-4a12,12,0,0,1,12-12v4A8,8,0,0,0,10.48,15.16Z"/></clipPath></defs><title>Artboard 1</title><g class="cls-2"><rect class="cls-3" x="18.48" y="3.16" width="231.86"/><rect class="cls-4" x="18.48" y="54.38" width="231.86" height="4"/><g class="cls-2"><g class="cls-5"><g class="cls-2"><path class="cls-6" d="M18.48,54.38v4a12,12,0,0,1-12-12h4a8,8,0,0,0,8,8"/></g></g></g><g class="cls-2"><g class="cls-7"><g class="cls-2"><path class="cls-8" d="M258.34,46.39h4c0,.3,0,.59,0,.89l-4-.3c0-.2,0-.4,0-.59"/><path class="cls-9" d="M258.32,47l4,.3c0,.33-.07.67-.12,1l-3.95-.64c0-.22.06-.44.08-.66"/><path class="cls-10" d="M258.24,47.64l3.95.64c-.05.32-.12.64-.19.95l-3.89-.95a4.53,4.53,0,0,0,.13-.64"/><path class="cls-11" d="M258.11,48.28l3.89.95c-.08.31-.17.62-.27.92l-3.79-1.26c.06-.2.12-.41.17-.61"/><path class="cls-12" d="M257.94,48.89l3.79,1.26c-.1.31-.22.61-.34.91l-3.68-1.57c.08-.19.16-.4.23-.6"/><path class="cls-13" d="M257.71,49.49l3.68,1.57c-.13.3-.27.6-.43.89l-3.54-1.86c.11-.2.2-.4.29-.6"/><path class="cls-14" d="M257.42,50.09,261,52c-.16.3-.33.59-.51.88l-3.37-2.15c.12-.2.24-.39.34-.59"/><path class="cls-15" d="M257.08,50.68l3.37,2.15c-.2.3-.4.6-.62.88l-3.17-2.45c.15-.19.29-.38.42-.58"/><path class="cls-16" d="M256.66,51.26l3.17,2.45c-.24.3-.49.6-.75.88l-2.92-2.74a5.57,5.57,0,0,0,.5-.59"/><path class="cls-17" d="M256.16,51.85l2.92,2.74c-.29.3-.59.59-.91.87l-2.61-3a8.21,8.21,0,0,0,.6-.58"/><path class="cls-18" d="M255.56,52.43l2.61,3a12.24,12.24,0,0,1-1.14.87L254.8,53a8.47,8.47,0,0,0,.76-.58"/><path class="cls-19" d="M254.8,53,257,56.33a11.94,11.94,0,0,1-1.47.85l-1.75-3.6a9.75,9.75,0,0,0,1-.57"/><path class="cls-20" d="M253.81,53.58l1.75,3.6a12.31,12.31,0,0,1-2.15.8l-1-3.86a8.44,8.44,0,0,0,1.43-.54"/><path class="cls-6" d="M252.38,54.12l1,3.86a12,12,0,0,1-3.08.4v-4a8.11,8.11,0,0,0,2-.26"/></g></g></g><rect class="cls-21" x="258.34" y="15.16" width="4" height="31.23"/><rect class="cls-6" x="6.48" y="15.16" width="4" height="31.23"/><rect class="cls-22" x="18.48" y="3.16" width="231.86" height="4"/><g class="cls-2"><g class="cls-23"><g class="cls-2"><path class="cls-10" d="M250.33,7.16v-4h.1l0,4h-.07"/><path class="cls-9" d="M250.4,7.16l0-4c.35,0,.68,0,1,0l-.37,4c-.23,0-.45,0-.68,0"/><path class="cls-8" d="M251.08,7.19l.37-4a9.48,9.48,0,0,1,1.05.15l-.72,3.93c-.24,0-.47-.08-.7-.1"/><path class="cls-24" d="M251.78,7.29l.72-3.93a10.7,10.7,0,0,1,1.12.26l-1.1,3.84c-.25-.07-.49-.12-.74-.17"/><path class="cls-25" d="M252.52,7.46l1.1-3.84a12.34,12.34,0,0,1,1.21.42l-1.5,3.7c-.26-.1-.54-.2-.81-.28"/><path class="cls-26" d="M253.33,7.74l1.5-3.7a12.11,12.11,0,0,1,1.45.7l-2,3.48a8.74,8.74,0,0,0-1-.48"/><path class="cls-27" d="M254.3,8.22l2-3.48a12.24,12.24,0,0,1,2.21,1.63L255.77,9.3a8.18,8.18,0,0,0-1.47-1.08"/><path class="cls-28" d="M255.77,9.3l2.72-2.93a12.26,12.26,0,0,1,1.89,2.24L257,10.8a8.22,8.22,0,0,0-1.26-1.5"/><path class="cls-27" d="M257,10.8l3.35-2.19A12.12,12.12,0,0,1,261.6,11l-3.75,1.38a8.06,8.06,0,0,0-.82-1.6"/><path class="cls-26" d="M257.85,12.4,261.6,11a12.69,12.69,0,0,1,.45,1.52l-3.9.88a8.57,8.57,0,0,0-.3-1"/><path class="cls-25" d="M258.15,13.42l3.9-.88c.09.41.17.84.22,1.27l-4,.45a7.74,7.74,0,0,0-.14-.84"/><path class="cls-24" d="M258.29,14.26l4-.45c0,.38.06.76.07,1.15l-4,.07a6.49,6.49,0,0,0,0-.77"/><path class="cls-8" d="M258.34,15l4-.07v.2h-4V15"/></g></g></g><path class="cls-29" d="M250.33,7.16a8,8,0,0,1,8,8V46.39a8,8,0,0,1-8,8H18.48a8,8,0,0,1-8-8V15.16a8,8,0,0,1,8-8Z"/><g class="cls-2"><g class="cls-30"><g class="cls-2"><path class="cls-6" d="M10.48,15.16h-4a12,12,0,0,1,1.06-4.93l3.65,1.65a7.82,7.82,0,0,0-.71,3.28"/><path class="cls-20" d="M11.19,11.88,7.54,10.23a12.55,12.55,0,0,1,1.17-2L12,10.54a7.2,7.2,0,0,0-.78,1.34"/><path class="cls-19" d="M12,10.54,8.71,8.22A11.5,11.5,0,0,1,9.8,6.89l2.9,2.76a7.67,7.67,0,0,0-.73.89"/><path class="cls-18" d="M12.7,9.65,9.8,6.89a12.06,12.06,0,0,1,1-1L13.4,9a7.18,7.18,0,0,0-.7.65"/><path class="cls-17" d="M13.4,9,10.85,5.92a10.43,10.43,0,0,1,1-.75L14.07,8.5a6.48,6.48,0,0,0-.67.5"/><path class="cls-16" d="M14.07,8.5,11.85,5.17c.32-.21.65-.41,1-.59l1.89,3.53c-.22.12-.44.25-.65.39"/><path class="cls-15" d="M14.72,8.11,12.83,4.58c.32-.17.64-.32,1-.46L15.36,7.8a5.38,5.38,0,0,0-.64.31"/><path class="cls-14" d="M15.36,7.8,13.8,4.12a7.6,7.6,0,0,1,.94-.36L16,7.56l-.63.24"/><path class="cls-13" d="M16,7.56l-1.25-3.8c.31-.1.62-.19.94-.27l.94,3.89q-.32.08-.63.18"/><path class="cls-12" d="M16.62,7.38l-.94-3.89c.31-.07.62-.14.94-.19l.62,4-.62.13"/><path class="cls-11" d="M17.24,7.25,16.62,3.3c.31,0,.63-.08,1-.11l.3,4-.64.07"/><path class="cls-10" d="M17.88,7.18l-.3-4q.44,0,.9,0v4l-.6,0"/></g></g></g></g></svg>