<svg id="Layer_1" data-name="Layer 1" xmlns="http://www.w3.org/2000/svg" viewBox="0 0 100 100"><defs><style>.cls-1{fill:silver;}.cls-2{fill:navy;}.cls-3{fill:gray;}.cls-4{fill:#fff;}.cls-5{fill:blue;}.cls-6{fill:lime;}.cls-7{fill:green;}.cls-8{fill:#fffbb0;}.cls-9{fill:#0f0e02;}</style></defs><title>Artboard 1</title><rect x="42.32" y="53.52" width="1.3" height="17.71" transform="translate(19.63 134.42) rotate(-127.49)"/><rect x="56.38" y="53.98" width="1.3" height="17.71" transform="translate(141.6 55.82) rotate(127.49)"/><rect x="49.09" y="35.46" width="1.3" height="22.07" transform="translate(99.48 92.98) rotate(180)"/><polygon class="cls-1" points="78 57.66 73.16 57.66 73.16 57.66 65.6 53.54 61.22 53.54 60.29 55.11 83.89 69.02 87.34 63.16 78 57.66"/><polyline class="cls-2" points="73.09 88.01 73.09 62.37 74.39 62.37 74.39 96.2 73.09 96.2 73.09 88.01"/><rect class="cls-3" x="72.15" y="49.62" width="1.3" height="17.16" transform="translate(-13.16 94.22) rotate(-61.38)"/><rect class="cls-4" x="69.53" y="51.07" width="1.3" height="19.06" transform="translate(-17.67 90.29) rotate(-59.49)"/><polygon class="cls-1" points="75.53 62.76 75.53 64.73 78.25 64.45 75.53 62.76"/><rect class="cls-3" x="68.23" y="53.31" width="1.3" height="19.06" transform="matrix(0.51, -0.86, 0.86, 0.51, -20.23, 90.28)"/><rect class="cls-2" x="67.88" y="54.61" width="1.3" height="19.06" transform="translate(-21.52 90.61) rotate(-59.49)"/><rect class="cls-3" x="81.7" y="57.8" width="1.3" height="13.2" transform="translate(135.79 -25.44) rotate(82.72)"/><rect class="cls-2" x="66.64" y="65.65" width="1.3" height="21.16" transform="translate(166.95 56.06) rotate(120)"/><polygon class="cls-5" points="61.68 60.85 61.68 72.24 73.09 79.03 73.24 67.41 61.68 60.85"/><rect x="60.59" y="55.7" width="1.3" height="21.11" transform="translate(122.47 132.51) rotate(180)"/><rect class="cls-1" x="68.37" y="51.49" width="1.3" height="19.86" transform="translate(-18.94 89.7) rotate(-59.49)"/><rect class="cls-1" x="59.29" y="54.8" width="1.3" height="22.01" transform="translate(119.88 131.61) rotate(180)"/><polygon class="cls-3" points="76.35 65.3 76.19 86.19 88.84 76.48 88.73 64.16 76.35 65.3"/><rect x="79.34" y="61.74" width="1.3" height="21.91" transform="translate(159.97 145.38) rotate(180)"/><rect class="cls-4" x="59.52" y="53.71" width="1.3" height="4.28" transform="translate(116.02 -4.31) rotate(90)"/><rect class="cls-1" x="66.32" y="68.13" width="1.3" height="21.76" transform="translate(168.88 60.52) rotate(120)"/><rect class="cls-3" x="66.61" y="66.41" width="1.3" height="22.57" transform="translate(168.17 58.29) rotate(120)"/><rect class="cls-4" x="58" y="54.8" width="1.3" height="22.01" transform="translate(117.29 131.61) rotate(180)"/><rect class="cls-3" x="58" y="52.97" width="1.3" height="3.6" transform="translate(89.61 -19.26) rotate(69.66)"/><rect class="cls-3" x="80.28" y="77.55" width="1.3" height="13.98" transform="translate(63.11 200.21) rotate(-127.49)"/><polyline class="cls-3" points="76.55 57.66 80.49 57.66 80.49 58.95 72.89 58.95 72.89 57.66 75.73 57.66"/><rect class="cls-3" x="62.2" y="51.43" width="1.3" height="5.5" transform="translate(117.03 -8.66) rotate(90)"/><line class="cls-3" x1="75.7" y1="94.49" x2="75.12" y2="93.73"/><polyline class="cls-1" points="55.43 80.95 56.27 79.5 78.59 92.39 75.69 97.41 55.43 85.71"/><line class="cls-3" x1="74.63" y1="89.91" x2="75.7" y2="89.09"/><rect class="cls-3" x="84.12" y="55.63" width="1.3" height="10.8" transform="translate(-11.5 101.55) rotate(-58.58)"/><rect class="cls-1" x="65.7" y="71.64" width="1.3" height="22.87" transform="translate(171.48 67.15) rotate(120)"/><rect class="cls-1" x="66.36" y="69.57" width="1.3" height="21.91" transform="translate(170.25 62.75) rotate(120)"/><polygon class="cls-3" points="87.87 80.8 87.36 80.14 75.7 89.09 75.7 94.49 76.8 95.93 87.87 87.44 87.87 80.8"/><rect x="88.42" y="63.28" width="1.3" height="13.71" transform="translate(178.13 140.27) rotate(180)"/><rect x="56.73" y="54.8" width="1.3" height="22.01" transform="translate(114.75 131.61) rotate(180)"/><rect class="cls-1" x="80.79" y="78.57" width="1.3" height="14.7" transform="translate(61.51 202.61) rotate(-126.84)"/><polyline class="cls-1" points="74.39 88.62 74.39 62.37 75.69 62.37 75.69 97.01 74.39 97.01 74.39 88.62"/><rect x="65.9" y="70.74" width="1.3" height="21.91" transform="translate(170.57 64.92) rotate(120)"/><rect class="cls-4" x="65.55" y="73.09" width="1.3" height="22.8" transform="translate(172.47 69.41) rotate(120)"/><rect x="55.43" y="76.81" width="1.3" height="9.75" transform="translate(112.16 163.37) rotate(180)"/><rect class="cls-6" x="60.41" y="83.33" width="1.3" height="2.7" transform="translate(-41.84 102.32) rotate(-63.93)"/><rect class="cls-7" x="59.84" y="84.49" width="1.3" height="2.7" transform="translate(-43.2 102.46) rotate(-63.93)"/><rect class="cls-4" x="56.73" y="79.03" width="1.3" height="7.7" transform="translate(114.75 165.76) rotate(180)"/><rect class="cls-1" x="58.86" y="82.3" width="1.3" height="4.44" transform="translate(119.01 169.04) rotate(180)"/><rect class="cls-1" x="61.38" y="83.63" width="1.3" height="4.44" transform="translate(124.05 171.69) rotate(180)"/><polyline class="cls-3" points="75.7 89.16 75.7 64.6 77 64.6 77 97.01 75.7 97.01 75.7 89.16"/><polygon points="87.01 80 86.57 80 86.57 88.45 87.87 88.45 87.87 86.47 87.87 82.5 87.87 80.3 87.01 80"/><polygon points="87.87 80.29 84.78 79.25 84.36 80.47 87.61 81.58 87.87 80.82 87.87 80.29"/><rect x="81.67" y="73.02" width="1.3" height="17.66" transform="translate(67.47 196.99) rotate(-127.49)"/><rect x="65.29" y="80.12" width="1.3" height="23.53" transform="translate(178.48 80.72) rotate(120)"/><line class="cls-4" x1="72.46" y1="57.28" x2="73.16" y2="57.66"/><line class="cls-4" x1="71.45" y1="56.72" x2="72.46" y2="57.28"/><line class="cls-4" x1="70.63" y1="56.28" x2="71.45" y2="56.72"/><line class="cls-4" x1="68.45" y1="55.09" x2="70.63" y2="56.28"/><line class="cls-4" x1="65.6" y1="53.54" x2="68.45" y2="55.09"/><line class="cls-4" x1="61.8" y1="53.51" x2="65.6" y2="53.54"/><line class="cls-4" x1="61.24" y1="53.51" x2="61.8" y2="53.51"/><rect class="cls-3" x="77.28" y="91.05" width="1.01" height="4.26" transform="translate(61.58 -27.11) rotate(32.18)"/><rect class="cls-3" x="76.46" y="91.35" width="1.16" height="2.15" transform="matrix(0.85, 0.53, -0.53, 0.85, 61.06, -26.83)"/><polygon points="87.87 87.44 75.01 97.3 75.8 98.33 87.87 89.07 87.87 87.44"/><path class="cls-8" d="M66.69,69.08l.08-1.32,1.07.4c0,.53,0,.79-.08,1.32Z"/><path class="cls-9" d="M65.92,70.15,66,68.83l2.46.91-.07,1.32Z"/><path class="cls-9" d="M66.77,67.63l0-.45,1.07.4,0,.44Z"/><path class="cls-9" d="M65.88,70.89,66,69.57l2.46.9-.08,1.33Z"/><path class="cls-9" d="M66.46,67.65v-.14l1.37.51v.14Z"/><polygon class="cls-1" points="32.85 57.66 28.02 57.66 28.02 57.66 20.45 53.54 16.08 53.54 15.15 55.11 38.74 69.02 42.2 63.16 32.85 57.66"/><polyline class="cls-2" points="27.95 88.01 27.95 62.37 29.25 62.37 29.25 96.2 27.95 96.2 27.95 88.01"/><rect class="cls-3" x="27" y="49.62" width="1.3" height="17.16" transform="translate(-36.68 54.59) rotate(-61.38)"/><rect class="cls-4" x="24.38" y="51.07" width="1.3" height="19.06" transform="translate(-39.89 51.4) rotate(-59.49)"/><polygon class="cls-1" points="30.39 62.76 30.39 64.73 33.11 64.45 30.39 62.76"/><rect class="cls-3" x="23.09" y="53.31" width="1.3" height="19.06" transform="matrix(0.51, -0.86, 0.86, 0.51, -42.45, 51.39)"/><rect class="cls-2" x="22.74" y="54.61" width="1.3" height="19.06" transform="translate(-43.74 51.72) rotate(-59.49)"/><rect class="cls-3" x="36.55" y="57.8" width="1.3" height="13.2" transform="translate(96.37 19.34) rotate(82.72)"/><rect class="cls-2" x="21.5" y="65.65" width="1.3" height="21.16" transform="translate(99.23 95.16) rotate(120)"/><polygon class="cls-5" points="16.54 60.85 16.54 72.24 27.95 79.03 28.1 67.41 16.54 60.85"/><rect x="15.44" y="55.7" width="1.3" height="21.11" transform="translate(32.19 132.51) rotate(180)"/><rect class="cls-1" x="23.22" y="51.49" width="1.3" height="19.86" transform="translate(-41.17 50.8) rotate(-59.49)"/><rect class="cls-1" x="14.15" y="54.8" width="1.3" height="22.01" transform="translate(29.59 131.61) rotate(180)"/><polygon class="cls-3" points="31.2 65.3 31.05 86.19 43.7 76.48 43.58 64.16 31.2 65.3"/><rect x="34.19" y="61.74" width="1.3" height="21.91" transform="translate(69.68 145.38) rotate(180)"/><rect class="cls-4" x="14.37" y="53.71" width="1.3" height="4.28" transform="translate(70.88 40.83) rotate(90)"/><rect class="cls-1" x="21.17" y="68.13" width="1.3" height="21.76" transform="translate(101.16 99.62) rotate(120)"/><rect class="cls-3" x="21.47" y="66.41" width="1.3" height="22.57" transform="translate(100.46 97.38) rotate(120)"/><rect class="cls-4" x="12.85" y="54.8" width="1.3" height="22.01" transform="translate(27 131.61) rotate(180)"/><rect class="cls-3" x="12.85" y="52.97" width="1.3" height="3.6" transform="translate(60.16 23.07) rotate(69.66)"/><rect class="cls-3" x="35.14" y="77.55" width="1.3" height="13.98" transform="translate(-9.51 164.39) rotate(-127.49)"/><polyline class="cls-3" points="31.4 57.66 35.35 57.66 35.35 58.95 27.75 58.95 27.75 57.66 30.59 57.66"/><rect class="cls-3" x="17.05" y="51.43" width="1.3" height="5.5" transform="translate(71.88 36.49) rotate(90)"/><line class="cls-3" x1="30.55" y1="94.49" x2="29.98" y2="93.73"/><polyline class="cls-1" points="10.29 80.95 11.12 79.5 33.44 92.39 30.55 97.41 10.29 85.71"/><line class="cls-3" x1="29.49" y1="89.91" x2="30.55" y2="89.09"/><rect class="cls-3" x="38.98" y="55.63" width="1.3" height="10.8" transform="translate(-33.11 63.03) rotate(-58.58)"/><rect class="cls-1" x="20.56" y="71.64" width="1.3" height="22.87" transform="translate(103.76 106.25) rotate(120)"/><rect class="cls-1" x="21.22" y="69.57" width="1.3" height="21.91" transform="translate(102.53 101.85) rotate(120)"/><polygon class="cls-3" points="42.72 80.8 42.22 80.14 30.55 89.09 30.55 94.49 31.66 95.93 42.72 87.44 42.72 80.8"/><rect x="43.27" y="63.28" width="1.3" height="13.71" transform="translate(87.85 140.27) rotate(180)"/><rect x="11.58" y="54.8" width="1.3" height="22.01" transform="translate(24.46 131.61) rotate(180)"/><rect class="cls-1" x="35.64" y="78.57" width="1.3" height="14.7" transform="translate(-10.71 166.48) rotate(-126.84)"/><polyline class="cls-1" points="29.25 88.62 29.25 62.37 30.54 62.37 30.54 97.01 29.25 97.01 29.25 88.62"/><rect x="20.75" y="70.74" width="1.3" height="21.91" transform="translate(102.86 104.01) rotate(120)"/><rect class="cls-4" x="20.41" y="73.09" width="1.3" height="22.8" transform="translate(104.76 108.5) rotate(120)"/><rect x="10.29" y="76.81" width="1.3" height="9.75" transform="translate(21.87 163.37) rotate(180)"/><rect class="cls-6" x="15.27" y="83.33" width="1.3" height="2.7" transform="translate(-67.15 61.77) rotate(-63.93)"/><rect class="cls-7" x="14.7" y="84.49" width="1.3" height="2.7" transform="translate(-68.51 61.91) rotate(-63.93)"/><rect class="cls-4" x="11.58" y="79.03" width="1.3" height="7.7" transform="translate(24.46 165.76) rotate(180)"/><rect class="cls-1" x="13.71" y="82.3" width="1.3" height="4.44" transform="translate(28.72 169.04) rotate(180)"/><rect class="cls-1" x="16.23" y="83.63" width="1.3" height="4.44" transform="translate(33.77 171.69) rotate(180)"/><polyline class="cls-3" points="30.55 89.16 30.55 64.6 31.85 64.6 31.85 97.01 30.55 97.01 30.55 89.16"/><polygon points="41.86 80 41.43 80 41.43 88.45 42.72 88.45 42.72 86.47 42.72 82.5 42.72 80.3 41.86 80"/><polygon points="42.72 80.29 39.63 79.25 39.22 80.47 42.47 81.58 42.72 80.82 42.72 80.29"/><rect x="36.52" y="73.02" width="1.3" height="17.66" transform="translate(-5.15 161.16) rotate(-127.49)"/><rect x="20.15" y="80.12" width="1.3" height="23.53" transform="translate(110.77 119.82) rotate(120)"/><line class="cls-4" x1="27.32" y1="57.28" x2="28.02" y2="57.66"/><line class="cls-4" x1="26.3" y1="56.72" x2="27.32" y2="57.28"/><line class="cls-4" x1="25.48" y1="56.28" x2="26.3" y2="56.72"/><line class="cls-4" x1="23.31" y1="55.09" x2="25.48" y2="56.28"/><line class="cls-4" x1="20.45" y1="53.54" x2="23.31" y2="55.09"/><line class="cls-4" x1="16.65" y1="53.51" x2="20.45" y2="53.54"/><line class="cls-4" x1="16.09" y1="53.51" x2="16.65" y2="53.51"/><rect class="cls-3" x="32.13" y="91.05" width="1.01" height="4.26" transform="translate(54.64 -3.06) rotate(32.18)"/><rect class="cls-3" x="31.31" y="91.35" width="1.16" height="2.15" transform="matrix(0.85, 0.53, -0.53, 0.85, 54.12, -2.79)"/><polygon points="42.72 87.44 29.86 97.3 30.65 98.33 42.72 89.07 42.72 87.44"/><path class="cls-8" d="M21.55,69.08l.07-1.32,1.07.4c0,.53,0,.79-.07,1.32Z"/><path class="cls-9" d="M20.78,70.15l.07-1.32,2.46.91-.07,1.32Z"/><path class="cls-9" d="M21.63,67.63l0-.45,1.07.4,0,.44Z"/><path class="cls-9" d="M20.74,70.89c0-.53,0-.8.07-1.32l2.46.9L23.2,71.8Z"/><path class="cls-9" d="M21.32,67.65v-.14L22.7,68v.14Z"/><polygon class="cls-1" points="55.43 5.82 50.59 5.82 50.59 5.82 43.02 1.7 38.65 1.7 37.72 3.27 61.32 17.18 64.77 11.32 55.43 5.82"/><polyline class="cls-2" points="50.52 36.17 50.52 10.53 51.82 10.53 51.82 44.36 50.52 44.36 50.52 36.17"/><rect class="cls-3" x="49.57" y="-2.22" width="1.3" height="17.16" transform="translate(20.59 47.4) rotate(-61.38)"/><rect class="cls-4" x="46.96" y="-0.77" width="1.3" height="19.06" transform="translate(15.88 45.33) rotate(-59.49)"/><polygon class="cls-1" points="52.96 10.92 52.96 12.89 55.68 12.61 52.96 10.92"/><rect class="cls-3" x="45.66" y="1.47" width="1.3" height="19.06" transform="translate(13.32 45.31) rotate(-59.49)"/><rect class="cls-2" x="45.31" y="2.77" width="1.3" height="19.06" transform="translate(12.03 45.65) rotate(-59.49)"/><rect class="cls-3" x="59.12" y="5.96" width="1.3" height="13.2" transform="translate(64.66 -48.32) rotate(82.72)"/><rect class="cls-2" x="44.07" y="13.81" width="1.3" height="21.16" transform="translate(88.2 -2.15) rotate(120)"/><polygon class="cls-5" points="39.11 9.01 39.11 20.4 50.52 27.19 50.67 15.57 39.11 9.01"/><rect x="38.02" y="3.86" width="1.3" height="21.11" transform="translate(77.33 28.83) rotate(180)"/><rect class="cls-1" x="45.8" y="-0.35" width="1.3" height="19.86" transform="translate(14.61 44.73) rotate(-59.49)"/><rect class="cls-1" x="36.72" y="2.96" width="1.3" height="22.01" transform="translate(74.74 27.93) rotate(180)"/><polygon class="cls-3" points="53.77 13.46 53.62 34.35 66.27 24.64 66.16 12.31 53.77 13.46"/><rect x="56.77" y="9.9" width="1.3" height="21.91" transform="translate(114.83 41.7) rotate(180)"/><rect class="cls-4" x="36.95" y="1.87" width="1.3" height="4.28" transform="translate(41.61 -33.58) rotate(90)"/><rect class="cls-1" x="43.75" y="16.29" width="1.3" height="21.76" transform="translate(90.12 2.31) rotate(120)"/><rect class="cls-3" x="44.04" y="14.57" width="1.3" height="22.57" transform="translate(89.42 0.07) rotate(120)"/><rect class="cls-4" x="35.42" y="2.96" width="1.3" height="22.01" transform="translate(72.14 27.93) rotate(180)"/><rect class="cls-3" x="35.42" y="1.13" width="1.3" height="3.6" transform="translate(26.28 -31.91) rotate(69.66)"/><rect class="cls-3" x="57.71" y="25.71" width="1.3" height="13.98" transform="translate(67.93 98.91) rotate(-127.49)"/><polyline class="cls-3" points="53.97 5.82 57.92 5.82 57.92 7.12 50.32 7.12 50.32 5.82 53.16 5.82"/><rect class="cls-3" x="39.62" y="-0.41" width="1.3" height="5.5" transform="translate(42.62 -37.93) rotate(90)"/><line class="cls-3" x1="53.13" y1="42.65" x2="52.55" y2="41.89"/><polyline class="cls-1" points="32.86 29.11 33.7 27.66 56.02 40.55 53.12 45.57 32.86 33.87"/><line class="cls-3" x1="52.06" y1="38.07" x2="53.13" y2="37.25"/><rect class="cls-3" x="61.55" y="3.79" width="1.3" height="10.8" transform="translate(21.94 57.47) rotate(-58.58)"/><rect class="cls-1" x="43.13" y="19.8" width="1.3" height="22.87" transform="translate(92.72 8.94) rotate(120)"/><rect class="cls-1" x="43.79" y="17.73" width="1.3" height="21.91" transform="translate(91.49 4.54) rotate(120)"/><polygon class="cls-3" points="65.3 28.96 64.79 28.3 53.13 37.25 53.13 42.65 54.23 44.09 65.3 35.6 65.3 28.96"/><rect x="65.85" y="11.44" width="1.3" height="13.71" transform="translate(132.99 36.59) rotate(180)"/><rect x="34.16" y="2.96" width="1.3" height="22.01" transform="translate(69.61 27.93) rotate(180)"/><rect class="cls-1" x="58.21" y="26.73" width="1.3" height="14.7" transform="translate(66.89 101.62) rotate(-126.84)"/><polyline class="cls-1" points="51.82 36.78 51.82 10.53 53.12 10.53 53.12 45.17 51.82 45.17 51.82 36.78"/><rect x="43.33" y="18.9" width="1.3" height="21.91" transform="translate(91.82 6.71) rotate(120)"/><rect class="cls-4" x="42.98" y="21.25" width="1.3" height="22.8" transform="translate(93.72 11.19) rotate(120)"/><rect x="32.86" y="24.97" width="1.3" height="9.75" transform="translate(67.01 59.69) rotate(180)"/><rect class="cls-6" x="37.84" y="31.49" width="1.3" height="2.7" transform="translate(-7.93 52.98) rotate(-63.93)"/><rect class="cls-7" x="37.27" y="32.65" width="1.3" height="2.7" transform="translate(-9.29 53.12) rotate(-63.93)"/><rect class="cls-4" x="34.16" y="27.19" width="1.3" height="7.7" transform="translate(69.61 62.08) rotate(180)"/><rect class="cls-1" x="36.28" y="30.46" width="1.3" height="4.44" transform="translate(73.87 65.36) rotate(180)"/><rect class="cls-1" x="38.81" y="31.79" width="1.3" height="4.44" transform="translate(78.91 68.01) rotate(180)"/><polyline class="cls-3" points="53.13 37.32 53.13 12.76 54.42 12.76 54.42 45.17 53.13 45.17 53.13 37.32"/><polygon points="64.44 28.16 64 28.16 64 36.61 65.3 36.61 65.3 34.63 65.3 30.66 65.3 28.45 64.44 28.16"/><polygon points="65.3 28.45 62.21 27.41 61.79 28.64 65.04 29.73 65.3 28.98 65.3 28.45"/><rect x="59.1" y="21.18" width="1.3" height="17.66" transform="translate(72.29 95.68) rotate(-127.49)"/><rect x="42.72" y="28.28" width="1.3" height="23.53" transform="translate(99.73 22.51) rotate(120)"/><line class="cls-4" x1="49.89" y1="5.44" x2="50.59" y2="5.82"/><line class="cls-4" x1="48.88" y1="4.88" x2="49.89" y2="5.44"/><line class="cls-4" x1="48.05" y1="4.44" x2="48.88" y2="4.88"/><line class="cls-4" x1="45.88" y1="3.25" x2="48.05" y2="4.44"/><line class="cls-4" x1="43.02" y1="1.7" x2="45.88" y2="3.25"/><line class="cls-4" x1="39.23" y1="1.67" x2="43.02" y2="1.7"/><line class="cls-4" x1="38.66" y1="1.67" x2="39.23" y2="1.67"/><rect class="cls-3" x="54.7" y="39.21" width="1.01" height="4.26" transform="translate(30.5 -23.05) rotate(32.18)"/><rect class="cls-3" x="53.89" y="39.51" width="1.16" height="2.15" transform="matrix(0.85, 0.53, -0.53, 0.85, 29.98, -22.77)"/><polygon points="65.3 35.6 52.44 45.46 53.23 46.49 65.3 37.23 65.3 35.6"/><path class="cls-8" d="M44.12,17.24l.07-1.32,1.07.4c0,.53,0,.79-.07,1.32Z"/><path class="cls-9" d="M43.35,18.31,43.42,17l2.47.91-.08,1.32Z"/><path class="cls-9" d="M44.2,15.79l0-.45,1.07.4,0,.44Z"/><path class="cls-9" d="M43.31,19.05c0-.53,0-.8.07-1.32l2.47.9L45.77,20Z"/><path class="cls-9" d="M43.89,15.81v-.14l1.38.51v.14Z"/></svg>