<svg id="Layer_1" data-name="Layer 1" xmlns="http://www.w3.org/2000/svg" viewBox="0 0 100 100"><defs><style>.cls-1{fill:#fff;}.cls-2{fill:gray;}.cls-3{fill:silver;}.cls-4{fill:#0000bf;}</style></defs><title>Artboard 1</title><rect class="cls-1" x="9.48" y="27.1" width="81.49" height="59.06"/><rect class="cls-2" x="8.06" y="8.97" width="2.84" height="80.02" transform="translate(18.96 97.97) rotate(180)"/><rect class="cls-3" x="47.39" y="39.75" width="2.84" height="92.83" transform="translate(134.97 37.36) rotate(90)"/><rect class="cls-4" x="42.58" y="-28.38" width="12.46" height="92.83" transform="translate(66.84 -30.77) rotate(90)"/><rect x="75.89" y="4.93" width="9.62" height="29.04" transform="translate(100.15 -61.24) rotate(90)"/><rect class="cls-3" x="47.39" y="-36.02" width="2.84" height="92.83" transform="translate(59.2 -38.41) rotate(90)"/><rect class="cls-3" x="66.17" y="14.65" width="5.91" height="5.91" transform="translate(86.73 -51.53) rotate(90)"/><rect class="cls-3" x="74.17" y="14.65" width="5.91" height="5.91" transform="translate(94.73 -59.52) rotate(90)"/><rect class="cls-3" x="82.17" y="14.65" width="5.91" height="5.91" transform="translate(102.72 -67.52) rotate(90)"/><rect class="cls-2" x="47.39" y="-19.31" width="2.84" height="92.83" transform="translate(75.91 -21.7) rotate(90)"/><rect class="cls-3" x="5.22" y="8.97" width="2.84" height="80.02" transform="translate(13.29 97.97) rotate(180)"/><rect class="cls-3" x="47.39" y="-22.15" width="2.84" height="92.83" transform="translate(73.07 -24.54) rotate(90)"/><rect class="cls-3" x="89.55" y="22.84" width="2.84" height="66.16" transform="translate(181.93 111.84) rotate(180)"/><rect x="95.22" y="6.14" width="2.84" height="84.28" transform="translate(193.27 96.55) rotate(180)"/><rect x="48.8" y="44" width="2.84" height="95.66" transform="translate(-41.61 142.05) rotate(-90)"/><rect class="cls-2" x="92.38" y="6.14" width="2.84" height="84.28"/><rect class="cls-2" x="2.39" y="6.14" width="2.84" height="84.28"/><rect class="cls-2" x="47.39" y="42.58" width="2.84" height="92.83" transform="translate(137.8 40.19) rotate(90)"/><rect class="cls-2" x="47.39" y="-38.86" width="2.84" height="92.83" transform="translate(56.36 -41.25) rotate(90)"/></svg>