<svg id="Layer_1" data-name="Layer 1" xmlns="http://www.w3.org/2000/svg" viewBox="0 0 100 100"><defs><style>.cls-1{fill:olive;}.cls-1,.cls-3,.cls-5{stroke:#000;}.cls-1,.cls-3,.cls-4,.cls-5,.cls-6{stroke-miterlimit:10;}.cls-1,.cls-3,.cls-4{stroke-width:2px;}.cls-2,.cls-4{fill:#ff0;}.cls-3{fill:none;}.cls-4{stroke:olive;}.cls-5,.cls-6{fill:aqua;}.cls-6{stroke:teal;stroke-width:0.75px;}.cls-7{fill:green;}.cls-8{fill:#f0f;}</style></defs><title>Artboard 1</title><ellipse class="cls-1" cx="47.51" cy="84.43" rx="29.28" ry="12.22"/><ellipse class="cls-2" cx="42.49" cy="84.49" rx="22.86" ry="12.16"/><ellipse class="cls-3" cx="48.1" cy="84.3" rx="29.28" ry="12.22"/><path d="M76.47,83.35c.2,1,.36,2,.54,2.92C51.37,91.65,43.67,92,18,86.2c.2-1,.39-1.93.58-2.9C43.8,89,51.27,88.73,76.47,83.35Z"/><path d="M72.88,77.85c.17.75.31,1.5.47,2.26C50.81,84.25,44,84.5,21.46,80.05c.18-.74.34-1.49.51-2.23C44.15,82.19,50.71,82,72.88,77.85Z"/><path class="cls-4" d="M77.27,8.87,20.73,53.26A35.94,35.94,0,1,0,77.27,8.87Z"/><path class="cls-3" d="M77.53,8.87l-28,22V67.39a35.95,35.95,0,0,0,28-58.52Z"/><path class="cls-5" d="M73,12.53,22.88,49.39a32.61,32.61,0,0,0,25.77,13.1c17.67.37,32.26-12.75,32.6-29.29A28.87,28.87,0,0,0,73,12.53Z"/><circle class="cls-6" cx="49.55" cy="32.37" r="30.19"/><rect x="48.1" y="65.56" width="2.88" height="6.21"/><polyline class="cls-7" points="32.53 30.07 33.83 26.17 28.77 29.72"/><polygon class="cls-7" points="36.42 20.61 42.73 20.61 42.73 22.37 45.5 23.63 46.89 22.88 48.91 23.63 53.07 23.63 53.07 25.78 54.96 30.07 57.74 33.85 61.4 33.85 61.4 35.87 60.01 38.14 57.49 40.16 55.97 42.68 56.1 45.58 55.59 47.73 53.7 50.38 51.68 53.02 48.4 55.04 46.26 55.04 44.75 53.15 43.36 50.25 42.6 47.22 43.61 45.33 42.22 41.67 40.71 40.28 41.21 37.83 38.69 36.75 36.42 36 33.14 36.12 30.49 33.35 30.49 29.44 31.12 25.27 36.42 20.61"/><path class="cls-8" d="M59.16,61c-.36.68-2.47.5-3.16.83C32.47,48.48,29.71,44.68,22.81,18.39c.54-.59,1-2.49,1.7-2.66C31,41.14,36.37,48.29,59.16,61Z"/><polygon class="cls-7" points="60.51 45.2 58.24 46.97 58.24 48.99 57.36 50.12 58.24 51.26 60.01 50.12 60.51 48.23 60.51 45.2"/><polygon class="cls-7" points="58.37 32.59 64.55 28.68 64.55 26.91 62.91 25.4 60.51 25.4 59.76 23.25 62.03 24.01 64.55 25.02 67.2 24.64 68.84 26.54 70.48 28.55 71.61 32.09 72.62 33.35 74.01 33.35 74.01 30.19 74.01 26.28 74.01 24.39 75.78 25.9 76.91 28.3 76.91 31.46 76.91 33.35 78.3 36.5 79.31 34.61 79.31 30.45 79.31 26.79 78.17 22.5 76.66 17.33 72.12 10.89 67.58 7.61 62.15 4.84 57.36 3.45 54.33 3.45 56.6 5.22 56.23 7.11 54.33 8.12 52.31 9.25 50.13 7.36 47.52 8.12 44.49 9.88 45.94 12.15 47.9 10.52 49.54 10.64 48.53 11.9 47.4 13.04 43.36 13.16 41.59 14.17 39.95 14.93 39.95 16.44 37.56 16.32 36.17 17.96 38.06 19.98 41.09 18.46 42.48 17.45 44.75 18.46 46.76 17.45 47.9 20.61 48.53 18.08 50.13 18.46 50.13 20.61 53.45 20.61 53.07 23.63 55.97 28.05 58.37 32.59"/><polygon class="cls-7" points="70.73 34.73 70.73 37.83 71.99 37.83 70.73 34.73"/><polygon class="cls-7" points="21.54 26.28 21.16 31.46 22.42 36.5 24.31 40.03 24.31 44.45 26.45 49.74 29.86 53.53 23.93 48.99 21.16 41.17 19.77 30.19 21.54 26.28"/><path class="cls-8" d="M78.2,23c.66,1.29.19,1.69.87,2C65.73,48.61,61.58,52.08,35.3,59c-.49-.48-2.86-1.11-3-1.86C57.68,50.66,65.49,45.82,78.2,23Z"/><path class="cls-8" d="M21.18,42.72c-.69-.35-.64-2.13-.89-3,13.78-23.86,17.24-26.56,44-33.8,0,0,2.65.85,2.81,1.61C41.24,14.32,34.31,19.6,21.18,42.72Z"/><polygon class="cls-7" points="26.33 15.18 29.86 12.66 34.4 8.37 36.92 8.37 40.46 7.74 44.24 6.1 47.27 4.96 46.51 2.82 41.72 3.45 36.8 4.96 30.49 9 27.21 12.41 24.82 16.7 26.33 15.18"/><path class="cls-8" d="M78.2,42.48c-.69.33-.77,1.81-1.24,2.55C69.5,17.92,68.36,17.57,44.55,2.6c.53-.56,2.37-.2,3-.41C71.09,16.94,70.88,15.65,78.2,42.48Z"/><path class="cls-8" d="M66.88,57.09c-.39.69-1.53.91-2,1.32A136.24,136.24,0,0,1,28.37,10.86c.69-.5,1.34-1.68,2.12-1.86C38,26.26,52.2,45.33,66.88,57.09Z"/><path class="cls-8" d="M35.65,5.7C36,5,37.44,4.89,37.94,4.5A129.05,129.05,0,0,1,73.53,50.71c-.64.55-1,1.54-1.58,2.19C64.47,35.64,50.34,17.45,35.65,5.7Z"/><path class="cls-8" d="M74.93,14.88a17.89,17.89,0,0,1,1.43,2A139.31,139.31,0,0,1,28.15,53.74c-.21-.77-1.44-1.06-1.62-1.83C43.79,44.43,63.18,29.57,74.93,14.88Z"/><path class="cls-8" d="M23.86,48.23c-.69-.39-1.05-1.84-1.42-2.57,12.35-15,30-28.3,47.78-36.28.51.64,1.29.91,1.9,1.51C54.86,18.37,35.61,33.54,23.86,48.23Z"/></svg>