<svg xmlns="http://www.w3.org/2000/svg" viewBox="0 0 122.39 128.86"><defs><style>.cls-1{fill:#fff;stroke:#fff;stroke-miterlimit:10;}.cls-2{fill:blue;}.cls-3{fill:lime;}.cls-4{fill:#ff0;}.cls-5{fill:red;}</style></defs><title>Asset 20</title><g id="Layer_2" data-name="Layer 2"><g id="Layer_1-2" data-name="Layer 1"><polygon class="cls-1" points="61.03 127.86 0.5 93.48 0.74 22.4 60.4 48.72 61.03 127.86"/><polygon class="cls-2" points="61.03 128 29.22 109.92 29.14 72.21 60.71 88.13 61.03 128"/><polygon class="cls-3" points="60.71 88.13 29.14 72.21 29.06 35.02 60.4 48.86 60.71 88.13"/><polygon class="cls-4" points="29.14 72.21 0.62 57.82 0.74 22.52 29.06 35.02 29.14 72.21"/><polygon class="cls-5" points="29.22 109.79 0.5 93.48 0.62 57.7 29.14 72.08 29.22 109.79"/><path class="cls-4" d="M38.37,57.93c0,3.87-2.52,5.77-5.62,4.27s-5.56-5.77-5.56-9.56,2.45-5.71,5.52-4.29S38.36,54.07,38.37,57.93Z"/><path class="cls-3" d="M50.24,86.59c0,4-2.61,5.82-5.86,4.13s-5.8-6.19-5.81-10.09,2.54-5.76,5.74-4.17S50.22,82.62,50.24,86.59Z"/><path class="cls-2" d="M32,92.5c0,3.88-2.49,5.65-5.55,4S21,90.39,21,86.59s2.43-5.59,5.45-4S32,88.63,32,92.5Z"/><path class="cls-5" d="M19,63c0,3.75-2.39,5.58-5.31,4.1s-5.2-5.64-5.2-9.33,2.33-5.53,5.21-4.13S19,59.2,19,63Z"/><polygon class="cls-1" points="121.88 93.29 61.97 128 61.33 49.07 120.01 22.33 121.88 93.29"/><polygon class="cls-2" points="121.89 93.41 93.4 109.92 92.73 72.12 120.94 57.54 121.89 93.41"/><polygon class="cls-3" points="120.94 57.54 92.73 72.12 92.08 35.18 120.02 22.45 120.94 57.54"/><polygon class="cls-4" points="92.73 72.12 61.65 88.19 61.34 49.2 92.08 35.18 92.73 72.12"/><polygon class="cls-5" points="93.39 109.79 61.97 128 61.65 88.06 92.73 72 93.39 109.79"/><path class="cls-4" d="M101.27,49.24c.07,3.72-2.25,7.92-5.21,9.4s-5.49-.38-5.56-4.17,2.33-8,5.31-9.42S101.19,45.53,101.27,49.24Z"/><path class="cls-3" d="M112.26,65.55c.09,3.7-2.15,7.94-5,9.47s-5.34-.24-5.42-4,2.23-8,5.13-9.5S112.18,61.86,112.26,65.55Z"/><path class="cls-2" d="M95.82,89.4c.07,3.85-2.33,8.35-5.39,10.06s-5.66,0-5.72-4,2.41-8.44,5.49-10.09S95.74,85.56,95.82,89.4Z"/><path class="cls-5" d="M82.26,73.24c.06,3.88-2.44,8.37-5.61,10s-5.86-.18-5.91-4.15,2.54-8.45,5.73-10S82.21,69.36,82.26,73.24Z"/><polygon class="cls-1" points="61.06 48.34 1.51 21.7 60.68 0.53 119.25 21.56 61.06 48.34"/><polygon class="cls-2" points="60.95 48.4 29.43 34.29 60.75 21.67 91.99 34.11 60.95 48.4"/><polygon class="cls-3" points="91.99 34.11 60.75 21.67 88.37 10.54 119.17 21.6 91.99 34.11"/><polygon class="cls-4" points="60.75 21.67 32.75 10.52 60.59 0.56 88.37 10.54 60.75 21.67"/><polygon class="cls-5" points="29.54 34.24 1.51 21.7 32.85 10.48 60.84 21.63 29.54 34.24"/><path class="cls-4" d="M84.11,19.38a16.67,16.67,0,0,1-10.72,0c-3-1.17-3.14-3-.3-4.17a16.82,16.82,0,0,1,10.5,0C86.64,16.35,86.9,18.21,84.11,19.38Z"/><path class="cls-3" d="M78.75,31.21a16.78,16.78,0,0,1-11.38,0c-3.18-1.31-3.23-3.41-.18-4.68a16.85,16.85,0,0,1,11.13,0C81.52,27.8,81.75,29.89,78.75,31.21Z"/><path class="cls-2" d="M48.36,28.94A16.91,16.91,0,0,1,37,29c-3-1.28-2.73-3.34.49-4.59a17.09,17.09,0,0,1,11.1,0C51.62,25.59,51.54,27.65,48.36,28.94Z"/><path class="cls-5" d="M54,16.41a16.87,16.87,0,0,1-10.65,0c-2.83-1.13-2.66-2.95.33-4.06a17,17,0,0,1,10.43,0C57,13.46,56.94,15.27,54,16.41Z"/></g></g></svg>