<svg id="Layer_1" data-name="Layer 1" xmlns="http://www.w3.org/2000/svg" viewBox="0 0 100 100"><defs><style>.cls-1{fill:silver;}.cls-2{fill:navy;}.cls-3{fill:gray;}.cls-4{fill:#fff;}.cls-5{fill:blue;}.cls-6{fill:lime;}.cls-7{fill:green;}</style></defs><title>Artboard 1</title><polygon class="cls-1" points="63.29 10.62 52.85 10.62 52.85 10.63 36.53 1.72 27.08 1.72 25.08 5.12 76 35.13 83.45 22.5 63.29 10.62"/><polyline class="cls-2" points="52.71 76.11 52.71 20.77 55.5 20.77 55.5 93.79 52.71 93.79 52.71 76.11"/><rect class="cls-3" x="50.66" y="-6.74" width="2.8" height="37.03" transform="translate(16.78 51.83) rotate(-61.38)"/><rect class="cls-4" x="45.01" y="-3.59" width="2.8" height="41.14" transform="matrix(0.51, -0.86, 0.86, 0.51, 8.22, 48.34)"/><polygon class="cls-1" points="57.97 21.62 57.97 25.87 63.84 25.28 57.97 21.62"/><rect class="cls-3" x="42.22" y="1.23" width="2.8" height="41.14" transform="translate(2.69 48.31) rotate(-59.49)"/><rect class="cls-2" x="41.46" y="4.03" width="2.8" height="41.14" transform="matrix(0.51, -0.86, 0.86, 0.51, -0.1, 49.03)"/><rect class="cls-3" x="71.27" y="10.93" width="2.8" height="28.49" transform="translate(88.43 -50.1) rotate(82.72)"/><rect class="cls-2" x="38.79" y="27.86" width="2.8" height="45.66" transform="translate(104.17 41.22) rotate(120)"/><polygon class="cls-5" points="28.08 17.51 28.08 42.08 52.71 56.74 53.02 31.66 28.08 17.51"/><rect x="25.72" y="6.39" width="2.8" height="45.56" transform="translate(54.24 58.33) rotate(180)"/><rect class="cls-1" x="42.51" y="-2.69" width="2.8" height="42.86" transform="translate(5.47 47.06) rotate(-59.49)"/><rect class="cls-1" x="22.92" y="4.44" width="2.8" height="47.5" transform="translate(48.64 56.39) rotate(180)"/><polygon class="cls-3" points="59.73 27.1 59.39 72.2 86.69 51.24 86.44 24.64 59.73 27.1"/><rect x="66.18" y="19.41" width="2.8" height="47.29" transform="translate(135.16 86.11) rotate(180)"/><rect class="cls-4" x="23.41" y="2.1" width="2.8" height="9.24" transform="translate(31.53 -18.08) rotate(90)"/><rect class="cls-1" x="38.08" y="33.22" width="2.8" height="46.95" transform="translate(108.33 50.86) rotate(120)"/><rect class="cls-3" x="38.72" y="29.5" width="2.8" height="48.7" transform="translate(106.81 46.03) rotate(120)"/><rect class="cls-4" x="20.12" y="4.44" width="2.8" height="47.5" transform="translate(43.04 56.39) rotate(180)"/><rect class="cls-3" x="20.12" y="0.5" width="2.8" height="7.77" transform="translate(18.15 -17.32) rotate(69.66)"/><rect class="cls-3" x="68.22" y="53.55" width="2.8" height="30.16" transform="translate(57.53 165.64) rotate(-127.49)"/><polyline class="cls-3" points="60.16 10.62 68.67 10.62 68.67 13.41 52.27 13.41 52.27 10.62 58.39 10.62"/><rect class="cls-3" x="29.19" y="-2.82" width="2.8" height="11.88" transform="translate(33.71 -27.47) rotate(90)"/><line class="cls-3" x1="58.33" y1="90.09" x2="57.08" y2="88.46"/><polyline class="cls-1" points="14.59 60.89 16.4 57.76 64.56 85.56 58.31 96.39 14.59 71.15"/><line class="cls-3" x1="56.03" y1="80.21" x2="58.33" y2="78.44"/><rect class="cls-3" x="76.5" y="6.23" width="2.8" height="23.31" transform="translate(22.03 75.04) rotate(-58.58)"/><rect class="cls-1" x="36.76" y="40.8" width="2.8" height="49.35" transform="translate(113.94 65.16) rotate(120)"/><rect class="cls-1" x="38.18" y="36.31" width="2.8" height="47.29" transform="translate(111.28 55.66) rotate(120)"/><polygon class="cls-3" points="84.59 60.55 83.5 59.13 58.33 78.44 58.33 90.09 60.71 93.2 84.59 74.88 84.59 60.55"/><rect x="85.78" y="22.76" width="2.8" height="29.58" transform="translate(174.35 75.09) rotate(180)"/><rect x="17.39" y="4.44" width="2.8" height="47.5" transform="translate(37.57 56.39) rotate(180)"/><rect class="cls-1" x="69.31" y="55.74" width="2.8" height="31.72" transform="matrix(-0.6, -0.8, 0.8, -0.6, 55.8, 171.12)"/><polyline class="cls-1" points="55.5 77.43 55.5 20.77 58.3 20.77 58.3 95.53 55.5 95.53 55.5 77.43"/><rect x="37.18" y="38.85" width="2.8" height="47.29" transform="translate(111.98 60.34) rotate(120)"/><rect class="cls-4" x="36.43" y="43.93" width="2.8" height="49.2" transform="translate(116.09 70.02) rotate(120)"/><rect x="14.59" y="51.95" width="2.8" height="21.04" transform="translate(31.97 124.93) rotate(180)"/><rect class="cls-6" x="25.33" y="66.02" width="2.8" height="5.84" transform="translate(-46.94 62.66) rotate(-63.93)"/><rect class="cls-7" x="24.1" y="68.53" width="2.8" height="5.84" transform="translate(-49.88 62.96) rotate(-63.93)"/><rect class="cls-4" x="17.39" y="56.74" width="2.8" height="16.61" transform="translate(37.57 130.09) rotate(180)"/><rect class="cls-1" x="21.98" y="63.8" width="2.8" height="9.57" transform="translate(46.76 137.17) rotate(180)"/><rect class="cls-1" x="27.42" y="66.66" width="2.8" height="9.57" transform="translate(57.65 142.89) rotate(180)"/><polyline class="cls-3" points="58.33 78.59 58.33 25.59 61.13 25.59 61.13 95.53 58.33 95.53 58.33 78.59"/><polygon points="82.73 58.84 81.79 58.84 81.79 77.08 84.59 77.08 84.59 72.79 84.59 64.23 84.59 59.47 82.73 58.84"/><polygon points="84.59 59.46 77.92 57.2 77.03 59.85 84.03 62.23 84.59 60.59 84.59 59.46"/><rect x="71.21" y="43.77" width="2.8" height="38.11" transform="translate(66.94 158.68) rotate(-127.49)"/><rect x="35.87" y="59.09" width="2.8" height="50.78" transform="translate(129.06 94.44) rotate(120)"/><line class="cls-4" x1="51.34" y1="9.79" x2="52.85" y2="10.62"/><line class="cls-4" x1="49.15" y1="8.6" x2="51.34" y2="9.79"/><line class="cls-4" x1="47.38" y1="7.63" x2="49.15" y2="8.6"/><line class="cls-4" x1="42.69" y1="5.08" x2="47.38" y2="7.63"/><line class="cls-4" x1="36.53" y1="1.72" x2="42.69" y2="5.08"/><line class="cls-4" x1="28.33" y1="1.67" x2="36.53" y2="1.72"/><line class="cls-4" x1="27.12" y1="1.66" x2="28.33" y2="1.67"/><rect class="cls-3" x="61.73" y="82.68" width="2.17" height="9.18" transform="translate(56.13 -20.05) rotate(32.18)"/><rect class="cls-3" x="59.96" y="83.32" width="2.5" height="4.63" transform="translate(55.01 -19.45) rotate(32.18)"/><polygon points="84.59 74.88 56.84 96.17 58.54 98.39 84.59 78.41 84.59 74.88"/></svg>