<svg id="Layer_1" data-name="Layer 1" xmlns="http://www.w3.org/2000/svg" viewBox="0 0 100 100"><defs><style>.cls-1,.cls-3{fill:#fff;}.cls-2{fill:silver;}.cls-3,.cls-8{stroke:gray;stroke-miterlimit:10;stroke-width:2px;}.cls-4{fill:blue;}.cls-5{fill:red;}.cls-6{fill:gray;}.cls-7{fill:#ff0;}.cls-8{fill:none;}</style></defs><title>Artboard 1</title><rect class="cls-1" x="65.12" y="14.2" width="10.9" height="12.86"/><rect class="cls-1" x="70.66" y="19.16" width="10.9" height="12.86"/><rect class="cls-2" x="76.16" y="7.92" width="2.33" height="25.4" transform="translate(9.7 63.42) rotate(-47.26)"/><polygon class="cls-3" points="69.26 8.34 21.11 8.34 21.11 89.36 86.51 89.36 86.51 25.59 69.26 25.59 69.26 8.34"/><rect class="cls-4" x="50.64" y="38.84" width="24.92" height="2.17"/><rect class="cls-4" x="50.64" y="34.38" width="24.92" height="2.17"/><rect class="cls-4" x="50.64" y="29.92" width="24.95" height="2.17"/><rect class="cls-4" x="25.83" y="52.21" width="22.15" height="2.17"/><rect class="cls-4" x="25.83" y="47.76" width="49.7" height="2.17"/><rect class="cls-4" x="25.83" y="43.3" width="49.76" height="2.17"/><rect class="cls-4" x="25.83" y="65.59" width="22.15" height="2.17"/><rect class="cls-4" x="25.83" y="61.13" width="22.15" height="2.17"/><rect class="cls-4" x="25.83" y="56.67" width="22.15" height="2.17"/><rect class="cls-4" x="25.83" y="70.01" width="22.15" height="2.17"/><rect class="cls-4" x="25.83" y="83.39" width="22.15" height="2.17"/><rect class="cls-4" x="25.83" y="78.93" width="22.15" height="2.17"/><rect class="cls-4" x="25.83" y="74.47" width="22.15" height="2.17"/><rect class="cls-2" x="44.02" y="69.1" width="30.48" height="2.17" transform="translate(129.44 10.92) rotate(90)"/><rect class="cls-2" x="63.6" y="69.29" width="2.17" height="8.68" transform="translate(138.3 8.94) rotate(90)"/><rect class="cls-2" x="65.89" y="75.89" width="10.38" height="2.17" transform="translate(75.25 -27.71) rotate(45)"/><rect class="cls-2" x="71.6" y="81.63" width="5.68" height="2.17" transform="translate(157.16 8.28) rotate(90)"/><rect class="cls-2" x="66.9" y="69.6" width="9.21" height="2.17" transform="translate(172.05 70.11) rotate(135)"/><rect class="cls-2" x="67.81" y="60.49" width="13.27" height="2.17" transform="translate(136.02 -12.86) rotate(90)"/><rect class="cls-5" x="43.27" y="68.25" width="30.48" height="2.17" transform="translate(127.85 10.82) rotate(90)"/><rect class="cls-5" x="62.85" y="68.44" width="2.17" height="8.68" transform="translate(136.71 8.84) rotate(90)"/><rect class="cls-5" x="65.14" y="75.05" width="10.38" height="2.17" transform="translate(74.43 -27.43) rotate(45)"/><rect class="cls-5" x="70.86" y="80.79" width="5.68" height="2.17" transform="translate(155.57 8.17) rotate(90)"/><rect class="cls-5" x="66.16" y="68.76" width="9.21" height="2.17" transform="translate(170.18 69.19) rotate(135)"/><rect class="cls-5" x="67.06" y="59.65" width="13.27" height="2.17" transform="translate(134.43 -12.97) rotate(90)"/><rect x="19.97" y="90.5" width="67.7" height="2.33"/><rect x="78.71" y="3.94" width="2.33" height="25.4" transform="translate(13.44 64.01) rotate(-47.26)"/><rect class="cls-6" x="77.39" y="5.89" width="2.33" height="25.4" transform="translate(11.58 63.66) rotate(-47.26)"/><rect class="cls-6" x="85.34" y="24.42" width="2.33" height="2.33"/><rect class="cls-4" x="26.6" y="32.09" width="8.17" height="7.32"/><rect x="54.63" y="57.46" width="68.41" height="2.33" transform="translate(30.21 147.46) rotate(-90)"/><rect class="cls-6" x="68.99" y="7.18" width="2.36" height="19.57"/><rect class="cls-5" x="35.95" y="14.2" width="10.29" height="3.38"/><rect class="cls-7" x="35.95" y="19.02" width="10.29" height="13.4"/><rect class="cls-1" x="66.69" y="9.51" width="2.36" height="17.55"/><rect x="69.05" y="24.42" width="20.95" height="2.33"/><rect class="cls-8" x="26.96" y="14.2" width="19.85" height="25.71"/><rect x="32.8" y="25.89" width="28.02" height="2.33" transform="translate(73.86 -19.76) rotate(90)"/><rect x="25.83" y="38.76" width="22.15" height="2.33" transform="translate(73.8 79.85) rotate(180)"/><rect x="28.13" y="32.09" width="19.84" height="2.33" transform="translate(76.09 66.52) rotate(180)"/><rect x="28.13" y="26.41" width="7.35" height="2.33" transform="translate(63.61 55.15) rotate(180)"/><rect x="34.58" y="17.11" width="13.4" height="2.33" transform="translate(82.56 36.56) rotate(180)"/><rect x="22.26" y="27.05" width="25.69" height="2.33" transform="translate(63.32 -6.88) rotate(90)"/></svg>